<?xml version="1.0" standalone="no"?>
<!DOCTYPE svg PUBLIC "-//W3C//DTD SVG 20010904//EN"
 "http://www.w3.org/TR/2001/REC-SVG-20010904/DTD/svg10.dtd">
<svg version="1.0" xmlns="http://www.w3.org/2000/svg"
 width="300.000000pt" height="81.000000pt" viewBox="0 0 300.000000 81.000000"
 preserveAspectRatio="xMidYMid meet">
<metadata>
Created by potrace 1.10, written by Peter Selinger 2001-2011
</metadata>
<g transform="translate(0.000000,81.000000) scale(0.100000,-0.100000)"
fill="#ffffff" stroke="none">
<path d="M42 653 c12 -32 33 -71 47 -87 15 -16 102 -66 209 -118 120 -59 195
-102 220 -126 58 -58 91 -105 60 -86 -8 5 -9 2 -3 -12 4 -10 9 -30 11 -44 4
-22 3 -23 -5 -5 -5 11 -10 16 -10 11 -1 -4 -18 7 -39 26 -21 19 -67 45 -102
58 -36 13 -86 34 -112 47 -53 26 -55 25 -33 -17 18 -35 48 -52 151 -84 80 -26
134 -65 134 -98 0 -35 16 -9 30 46 10 43 10 64 1 103 -29 112 -93 170 -319
287 -95 49 -189 104 -211 122 -22 19 -42 34 -45 34 -3 0 4 -26 16 -57z m67
-37 c34 -30 206 -111 229 -107 6 1 12 -2 12 -8 0 -5 14 -12 30 -16 17 -4 30
-13 30 -22 0 -9 6 -13 15 -9 9 3 15 0 15 -10 0 -11 6 -14 16 -10 8 3 13 2 10
-3 -3 -4 9 -18 25 -30 24 -18 28 -26 19 -35 -8 -8 -14 -7 -21 7 -6 9 -17 17
-24 17 -8 0 -74 28 -145 62 -92 43 -127 64 -118 71 9 6 8 7 -5 3 -10 -3 -26 2
-36 12 -10 9 -32 30 -50 45 -29 27 -40 47 -24 47 3 0 14 -6 22 -14z m426 -266
c3 -5 1 -10 -4 -10 -6 0 -11 5 -11 10 0 6 2 10 4 10 3 0 8 -4 11 -10z"/>
<path d="M733 575 c-46 -20 -73 -69 -73 -131 0 -101 84 -153 209 -128 30 6 31
9 31 55 0 39 3 49 17 49 38 0 -1 14 -45 16 -55 2 -80 -8 -37 -16 27 -5 30 -9
30 -45 0 -39 -1 -40 -39 -43 -22 -2 -50 -1 -63 3 -36 9 -63 61 -63 122 0 44 5
58 28 85 25 27 36 31 75 31 50 0 77 -15 77 -44 0 -11 5 -19 10 -19 17 0 12 67
-6 74 -28 11 -118 6 -151 -9z"/>
<path d="M970 580 c0 -5 7 -10 15 -10 13 0 15 -20 15 -120 0 -100 -2 -120 -15
-120 -8 0 -15 -4 -15 -8 0 -11 96 -10 106 1 4 4 -2 7 -14 7 -20 0 -22 5 -22
55 0 47 3 55 19 55 12 0 29 -20 50 -60 22 -40 38 -60 51 -60 10 0 25 -3 34 -6
24 -9 19 10 -6 21 -11 6 -34 34 -51 63 l-29 52 26 21 c36 29 34 87 -4 106 -30
15 -160 17 -160 3z m138 -22 c7 -7 12 -26 12 -43 0 -38 -16 -55 -52 -55 -27 0
-28 1 -28 55 0 54 1 55 28 55 15 0 33 -5 40 -12z"/>
<path d="M1240 581 c0 -5 9 -11 20 -14 18 -5 20 -14 20 -105 0 -114 -4 -132
-31 -132 -10 0 -19 -4 -19 -8 0 -12 194 -1 202 12 4 6 8 20 8 31 0 18 -3 17
-23 -8 -19 -24 -28 -28 -62 -25 l-40 3 -3 57 -3 57 51 -6 c43 -5 50 -3 50 12
0 14 -8 16 -50 13 l-50 -3 0 53 0 53 43 -3 c32 -2 44 -8 52 -25 14 -33 25 -28
25 12 l0 35 -95 0 c-52 0 -95 -4 -95 -9z"/>
<path d="M1480 580 c0 -5 9 -10 20 -10 19 0 20 -7 20 -116 0 -107 -1 -116 -20
-121 -11 -3 -20 -10 -20 -15 0 -6 7 -7 16 -4 9 3 53 6 99 6 82 0 83 0 88 28 5
28 -2 47 -10 24 -11 -30 -36 -43 -77 -40 l-41 3 -3 59 -3 58 50 -7 c43 -6 51
-4 51 9 0 13 -11 16 -50 16 l-50 0 0 50 0 50 45 0 c39 0 47 -3 55 -25 13 -35
20 -31 20 10 l0 35 -95 0 c-57 0 -95 -4 -95 -10z"/>
<path d="M1720 581 c0 -5 9 -11 20 -14 19 -5 20 -14 20 -121 0 -109 -1 -116
-20 -116 -11 0 -20 -4 -20 -8 0 -5 23 -8 50 -8 51 0 66 9 30 19 -18 5 -20 14
-20 102 l0 97 92 -110 c50 -61 95 -109 100 -106 4 3 8 61 8 130 0 121 1 124
22 124 41 0 9 12 -36 14 -47 2 -62 -8 -26 -17 18 -5 20 -14 20 -96 0 -50 -2
-91 -3 -91 -2 0 -44 47 -93 105 -73 87 -93 105 -116 105 -16 0 -28 -4 -28 -9z"/>
<path d="M2130 571 c-47 -25 -73 -72 -72 -129 1 -85 65 -136 164 -129 32 2 60
5 62 8 2 2 7 22 11 44 l7 40 -24 -35 c-20 -30 -30 -35 -70 -38 -36 -2 -51 2
-73 20 -30 27 -45 84 -34 136 19 90 133 119 173 45 l15 -28 1 43 0 42 -63 0
c-42 0 -74 -6 -97 -19z"/>
<path d="M2452 548 c-10 -24 -34 -81 -53 -127 -21 -52 -41 -86 -51 -89 -34 -8
-18 -20 27 -20 25 0 45 4 45 9 0 5 -7 9 -15 9 -19 0 -19 8 0 54 14 34 18 36
59 36 43 0 44 -1 59 -45 15 -43 15 -45 -4 -45 -10 0 -19 -4 -19 -9 0 -4 25 -8
55 -8 54 0 73 10 36 20 -14 3 -29 37 -61 131 -23 69 -46 126 -50 126 -5 0 -18
-19 -28 -42z m44 -92 c6 -24 4 -26 -30 -26 -20 0 -36 3 -36 6 0 4 8 29 18 56
l17 49 12 -29 c7 -16 15 -41 19 -56z"/>
<path d="M2640 580 c0 -5 7 -10 15 -10 13 0 15 -20 15 -120 0 -100 -2 -120
-15 -120 -8 0 -15 -4 -15 -8 0 -4 25 -8 55 -9 30 -1 55 3 55 8 0 5 -9 9 -20 9
-17 0 -20 7 -20 50 0 49 1 50 30 50 45 0 89 26 96 57 9 36 -6 75 -36 90 -30
15 -160 17 -160 3z m144 -26 c19 -19 21 -64 4 -87 -7 -9 -28 -20 -45 -23 l-33
-6 0 66 0 66 29 0 c16 0 37 -7 45 -16z"/>
<path d="M155 479 c24 -78 38 -89 196 -155 127 -53 180 -83 202 -114 14 -19
14 -19 13 12 -2 60 -53 97 -276 202 -41 19 -90 45 -109 57 l-33 23 7 -25z
m110 -64 c21 -1 105 -38 105 -47 0 -5 20 -17 45 -28 25 -11 45 -21 45 -22 0
-2 -11 -4 -25 -4 -15 -1 -22 2 -18 9 4 6 0 8 -10 4 -19 -7 -179 57 -197 78
-18 22 -3 37 23 23 12 -7 27 -12 32 -13z"/>
<path d="M705 183 c0 -40 4 -53 15 -53 11 0 15 13 15 54 0 42 -3 54 -15 53
-11 -1 -15 -14 -15 -54z"/>
<path d="M896 230 c-10 -31 -11 -100 -1 -100 6 0 9 17 7 43 l-3 42 27 -42 c14
-24 30 -43 35 -43 5 0 8 26 7 58 l-1 57 -6 -45 -6 -45 -27 45 c-18 31 -28 40
-32 30z"/>
<path d="M1122 229 c4 -10 12 -35 19 -58 7 -23 17 -41 23 -41 12 0 51 99 42
107 -3 3 -14 -14 -24 -38 l-19 -44 -7 32 c-4 17 -15 38 -24 45 -13 11 -15 11
-10 -3z"/>
<path d="M1383 232 c-20 -3 -23 -9 -23 -53 0 -48 1 -49 31 -49 16 0 28 4 25 9
-3 5 -15 7 -27 4 -17 -5 -20 -2 -17 13 2 11 11 18 21 16 9 -2 17 2 17 8 0 5
-9 10 -20 10 -31 0 -24 28 8 32 15 2 23 5 17 9 -5 3 -20 3 -32 1z"/>
<path d="M1770 228 c0 -5 7 -8 15 -8 11 0 15 -12 15 -45 0 -25 5 -45 10 -45 6
0 10 20 10 45 0 35 4 45 17 45 9 0 13 3 10 6 -9 10 -77 11 -77 2z"/>
<path d="M2283 232 c-20 -3 -23 -9 -23 -53 0 -48 1 -49 31 -49 16 0 28 4 25 9
-3 5 -15 7 -27 4 -17 -5 -20 -2 -17 13 2 11 11 18 21 16 9 -2 17 2 17 8 0 5
-9 10 -20 10 -31 0 -24 28 8 32 15 2 23 5 17 9 -5 3 -20 3 -32 1z"/>
<path d="M2538 199 l-3 -44 -22 38 c-12 20 -27 37 -33 37 -5 0 -10 -22 -10
-50 0 -27 3 -50 8 -50 4 0 6 19 4 43 l-3 42 27 -42 c35 -58 49 -55 48 7 -2 64
-12 76 -16 19z"/>
<path d="M2700 228 c0 -4 7 -8 15 -8 11 0 15 -12 15 -45 0 -25 5 -45 10 -45 6
0 10 20 10 45 0 35 4 45 17 45 9 0 13 3 10 6 -10 10 -77 12 -77 2z"/>
<path d="M1566 221 c-10 -15 4 -40 25 -46 26 -9 18 -31 -9 -27 -12 2 -22 -2
-22 -7 0 -6 14 -11 30 -11 43 0 51 27 17 54 -34 27 -34 40 -2 34 14 -3 25 -1
25 3 0 12 -57 11 -64 0z"/>
<path d="M1990 180 c0 -54 19 -71 21 -17 l1 32 15 -35 c14 -33 16 -34 29 -15
8 10 14 24 14 31 0 7 4 15 8 18 4 2 6 -11 4 -30 -3 -21 0 -34 7 -34 7 0 11 20
11 50 0 61 -20 67 -40 13 l-14 -38 -14 38 c-22 55 -42 48 -42 -13z"/>
</g>
</svg>
